# This file uses centimeters as units for non-parametric coordinates.

mtllib placeholderDebris.mtl
g default
v -0.270112 -0.126435 0.036188
v -0.410402 -0.065325 0.109453
v -0.322947 -0.067717 -0.113959
v -0.463237 -0.006607 -0.040694
v -0.243507 0.079256 -0.084436
v -0.383797 0.140367 -0.011172
v -0.190672 0.020538 0.065711
v -0.330962 0.081649 0.138976
v 0.239267 -0.113983 0.105376
v 0.050989 -0.094071 -0.024576
v 0.366031 -0.026312 -0.064851
v 0.177753 -0.006400 -0.194802
v 0.331178 0.184993 0.018023
v 0.142900 0.204905 -0.111929
v 0.204414 0.097322 0.188249
v 0.016136 0.117234 0.058297
v -0.316970 -0.130317 -0.372223
v -0.432112 -0.048763 -0.233587
v -0.254492 0.049469 -0.426093
v -0.369634 0.131023 -0.287457
v -0.106278 0.037038 -0.295684
v -0.221420 0.118591 -0.157048
v -0.168756 -0.142748 -0.241814
v -0.283898 -0.061194 -0.103178
v -0.132260 -0.142437 0.128166
v -0.174647 -0.082583 0.311875
v -0.247505 0.000691 0.054943
v -0.289892 0.060545 0.238653
v -0.092424 0.123412 0.050741
v -0.134811 0.183266 0.234451
v 0.022822 -0.019715 0.123964
v -0.019565 0.040139 0.307673
v 0.130789 -0.236590 0.228801
v 0.007921 -0.090754 0.365283
v 0.096374 -0.094207 0.045677
v -0.026494 0.051629 0.182159
v 0.293125 0.021771 0.098876
v 0.170257 0.167606 0.235358
v 0.327540 -0.120613 0.282000
v 0.204672 0.025223 0.418482
v -0.138808 -0.095679 -0.146772
v -0.117944 -0.088021 0.049785
v -0.090002 0.095598 -0.159404
v -0.069138 0.103256 0.037152
v 0.100552 0.045769 -0.177690
v 0.121417 0.053427 0.018867
v 0.051747 -0.145508 -0.165058
v 0.072611 -0.137850 0.031499
v -0.007611 -0.025690 -0.360256
v 0.013253 -0.018033 -0.163700
v 0.041195 0.165587 -0.372889
v 0.062059 0.173244 -0.176332
v 0.231750 0.115758 -0.391175
v 0.252614 0.123415 -0.194618
v 0.182944 -0.075519 -0.378542
v 0.203808 -0.067862 -0.181986
v -0.266002 -0.024771 0.018281
v -0.149946 -0.117138 0.006688
v -0.173296 0.088221 0.046091
v -0.057241 -0.004146 0.034498
v -0.164835 0.117138 -0.099605
v -0.048780 0.024771 -0.111197
v -0.257541 0.004146 -0.127414
v -0.141486 -0.088221 -0.139007
vt 0.375000 0.000000
vt 0.625000 0.000000
vt 0.375000 0.250000
vt 0.625000 0.250000
vt 0.375000 0.500000
vt 0.625000 0.500000
vt 0.375000 0.750000
vt 0.625000 0.750000
vt 0.375000 1.000000
vt 0.625000 1.000000
vt 0.875000 0.000000
vt 0.875000 0.250000
vt 0.125000 0.000000
vt 0.125000 0.250000
vt 0.375000 0.000000
vt 0.625000 0.000000
vt 0.625000 0.250000
vt 0.375000 0.250000
vt 0.625000 0.500000
vt 0.375000 0.500000
vt 0.625000 0.750000
vt 0.375000 0.750000
vt 0.625000 1.000000
vt 0.375000 1.000000
vt 0.875000 0.000000
vt 0.875000 0.250000
vt 0.125000 0.000000
vt 0.125000 0.250000
vt 0.375000 0.000000
vt 0.625000 0.000000
vt 0.625000 0.250000
vt 0.375000 0.250000
vt 0.625000 0.500000
vt 0.375000 0.500000
vt 0.625000 0.750000
vt 0.375000 0.750000
vt 0.625000 1.000000
vt 0.375000 1.000000
vt 0.875000 0.000000
vt 0.875000 0.250000
vt 0.125000 0.000000
vt 0.125000 0.250000
vt 0.375000 0.000000
vt 0.625000 0.000000
vt 0.625000 0.250000
vt 0.375000 0.250000
vt 0.625000 0.500000
vt 0.375000 0.500000
vt 0.625000 0.750000
vt 0.375000 0.750000
vt 0.625000 1.000000
vt 0.375000 1.000000
vt 0.875000 0.000000
vt 0.875000 0.250000
vt 0.125000 0.000000
vt 0.125000 0.250000
vt 0.375000 0.000000
vt 0.625000 0.000000
vt 0.625000 0.250000
vt 0.375000 0.250000
vt 0.625000 0.500000
vt 0.375000 0.500000
vt 0.625000 0.750000
vt 0.375000 0.750000
vt 0.625000 1.000000
vt 0.375000 1.000000
vt 0.875000 0.000000
vt 0.875000 0.250000
vt 0.125000 0.000000
vt 0.125000 0.250000
vt 0.375000 0.000000
vt 0.625000 0.000000
vt 0.625000 0.250000
vt 0.375000 0.250000
vt 0.625000 0.500000
vt 0.375000 0.500000
vt 0.625000 0.750000
vt 0.375000 0.750000
vt 0.625000 1.000000
vt 0.375000 1.000000
vt 0.875000 0.000000
vt 0.875000 0.250000
vt 0.125000 0.000000
vt 0.125000 0.250000
vt 0.375000 0.000000
vt 0.625000 0.000000
vt 0.625000 0.250000
vt 0.375000 0.250000
vt 0.625000 0.500000
vt 0.375000 0.500000
vt 0.625000 0.750000
vt 0.375000 0.750000
vt 0.625000 1.000000
vt 0.375000 1.000000
vt 0.875000 0.000000
vt 0.875000 0.250000
vt 0.125000 0.000000
vt 0.125000 0.250000
vt 0.375000 0.000000
vt 0.625000 0.000000
vt 0.625000 0.250000
vt 0.375000 0.250000
vt 0.625000 0.500000
vt 0.375000 0.500000
vt 0.625000 0.750000
vt 0.375000 0.750000
vt 0.625000 1.000000
vt 0.375000 1.000000
vt 0.875000 0.000000
vt 0.875000 0.250000
vt 0.125000 0.000000
vt 0.125000 0.250000
vn -0.468238 -0.866298 -0.174014
vn -0.468238 -0.866298 -0.174014
vn -0.468238 -0.866298 -0.174014
vn -0.468238 -0.866298 -0.174014
vn -0.311423 0.346097 -0.885004
vn -0.311423 0.346097 -0.885004
vn -0.311423 0.346097 -0.885004
vn -0.311423 0.346097 -0.885004
vn 0.468238 0.866298 0.174014
vn 0.468238 0.866298 0.174014
vn 0.468238 0.866298 0.174014
vn 0.468238 0.866298 0.174014
vn 0.311423 -0.346097 0.885004
vn 0.311423 -0.346097 0.885004
vn 0.311423 -0.346097 0.885004
vn 0.311423 -0.346097 0.885004
vn -0.826903 0.360201 0.431841
vn -0.826903 0.360201 0.431841
vn -0.826903 0.360201 0.431841
vn -0.826903 0.360201 0.431841
vn 0.826903 -0.360201 -0.431841
vn 0.826903 -0.360201 -0.431841
vn 0.826903 -0.360201 -0.431841
vn 0.826903 -0.360201 -0.431841
vn 0.151775 -0.920175 -0.360891
vn 0.151775 -0.920175 -0.360891
vn 0.151775 -0.920175 -0.360891
vn 0.151775 -0.920175 -0.360891
vn 0.552024 0.381784 -0.741290
vn 0.552024 0.381784 -0.741290
vn 0.552024 0.381784 -0.741290
vn 0.552024 0.381784 -0.741290
vn -0.151775 0.920175 0.360891
vn -0.151775 0.920175 0.360891
vn -0.151775 0.920175 0.360891
vn -0.151775 0.920175 0.360891
vn -0.552024 -0.381784 0.741290
vn -0.552024 -0.381784 0.741290
vn -0.552024 -0.381784 0.741290
vn -0.552024 -0.381784 0.741290
vn -0.819898 0.086711 -0.565904
vn -0.819898 0.086711 -0.565904
vn -0.819898 0.086711 -0.565904
vn -0.819898 0.086711 -0.565904
vn 0.819898 -0.086712 0.565905
vn 0.819898 -0.086712 0.565905
vn 0.819898 -0.086712 0.565905
vn 0.819898 -0.086712 0.565905
vn -0.749278 0.062844 -0.659268
vn -0.749277 0.062844 -0.659268
vn -0.749277 0.062844 -0.659268
vn -0.749277 0.062844 -0.659268
vn 0.315850 0.908885 -0.272334
vn 0.315850 0.908885 -0.272334
vn 0.315850 0.908885 -0.272334
vn 0.315850 0.908885 -0.272334
vn 0.749277 -0.062844 0.659268
vn 0.749277 -0.062844 0.659268
vn 0.749277 -0.062844 0.659268
vn 0.749277 -0.062844 0.659268
vn -0.315850 -0.908885 0.272334
vn -0.315850 -0.908885 0.272334
vn -0.315850 -0.908885 0.272334
vn -0.315850 -0.908885 0.272334
vn -0.582084 0.412284 0.700857
vn -0.582084 0.412284 0.700857
vn -0.582084 0.412284 0.700857
vn -0.582084 0.412284 0.700857
vn 0.582084 -0.412284 -0.700857
vn 0.582084 -0.412284 -0.700857
vn 0.582084 -0.412284 -0.700857
vn 0.582084 -0.412284 -0.700857
vn -0.783996 -0.620402 0.021243
vn -0.783996 -0.620402 0.021243
vn -0.783996 -0.620402 0.021243
vn -0.783996 -0.620402 0.021243
vn -0.582609 0.723563 -0.370166
vn -0.582609 0.723563 -0.370166
vn -0.582609 0.723563 -0.370166
vn -0.582609 0.723563 -0.370166
vn 0.783996 0.620402 -0.021243
vn 0.783996 0.620402 -0.021243
vn 0.783996 0.620402 -0.021243
vn 0.783996 0.620402 -0.021243
vn 0.582609 -0.723563 0.370166
vn 0.582609 -0.723563 0.370166
vn 0.582609 -0.723564 0.370165
vn 0.582609 -0.723563 0.370166
vn -0.214281 0.302585 0.928723
vn -0.214281 0.302585 0.928723
vn -0.214281 0.302585 0.928723
vn -0.214281 0.302585 0.928723
vn 0.214281 -0.302585 -0.928723
vn 0.214281 -0.302585 -0.928723
vn 0.214281 -0.302585 -0.928723
vn 0.214281 -0.302585 -0.928723
vn -0.839012 -0.494565 -0.226857
vn -0.839012 -0.494565 -0.226857
vn -0.839012 -0.494565 -0.226857
vn -0.839012 -0.494565 -0.226857
vn -0.146757 0.607169 -0.780902
vn -0.146757 0.607169 -0.780902
vn -0.146757 0.607169 -0.780902
vn -0.146757 0.607169 -0.780902
vn 0.839012 0.494565 0.226857
vn 0.839012 0.494565 0.226857
vn 0.839012 0.494565 0.226857
vn 0.839012 0.494565 0.226857
vn 0.146758 -0.607169 0.780902
vn 0.146758 -0.607169 0.780902
vn 0.146758 -0.607169 0.780902
vn 0.146758 -0.607169 0.780902
vn -0.523948 0.621893 0.582003
vn -0.523948 0.621893 0.582003
vn -0.523948 0.621893 0.582003
vn -0.523948 0.621893 0.582003
vn 0.523948 -0.621893 -0.582003
vn 0.523948 -0.621893 -0.582003
vn 0.523948 -0.621893 -0.582003
vn 0.523948 -0.621893 -0.582003
vn -0.963327 0.251905 0.092442
vn -0.963327 0.251905 0.092442
vn -0.963327 0.251905 0.092442
vn -0.963327 0.251905 0.092442
vn 0.246732 0.966977 -0.063861
vn 0.246732 0.966977 -0.063861
vn 0.246732 0.966977 -0.063861
vn 0.246732 0.966977 -0.063861
vn 0.963327 -0.251905 -0.092442
vn 0.963327 -0.251905 -0.092442
vn 0.963327 -0.251905 -0.092442
vn 0.963327 -0.251905 -0.092442
vn -0.246732 -0.966977 0.063861
vn -0.246732 -0.966977 0.063861
vn -0.246732 -0.966977 0.063861
vn -0.246732 -0.966977 0.063861
vn 0.105476 0.038711 0.993668
vn 0.105476 0.038711 0.993668
vn 0.105476 0.038711 0.993668
vn 0.105476 0.038711 0.993668
vn -0.105476 -0.038711 -0.993668
vn -0.105476 -0.038711 -0.993668
vn -0.105476 -0.038711 -0.993668
vn -0.105476 -0.038711 -0.993668
vn -0.963327 0.251905 0.092442
vn -0.963327 0.251905 0.092442
vn -0.963327 0.251905 0.092442
vn -0.963327 0.251905 0.092442
vn 0.246732 0.966977 -0.063862
vn 0.246732 0.966977 -0.063862
vn 0.246732 0.966977 -0.063862
vn 0.246732 0.966977 -0.063862
vn 0.963327 -0.251905 -0.092442
vn 0.963327 -0.251905 -0.092442
vn 0.963327 -0.251905 -0.092442
vn 0.963327 -0.251905 -0.092442
vn -0.246732 -0.966977 0.063861
vn -0.246732 -0.966977 0.063861
vn -0.246732 -0.966977 0.063861
vn -0.246732 -0.966977 0.063861
vn 0.105476 0.038711 0.993668
vn 0.105476 0.038711 0.993668
vn 0.105476 0.038711 0.993668
vn 0.105476 0.038711 0.993668
vn -0.105476 -0.038711 -0.993668
vn -0.105476 -0.038711 -0.993668
vn -0.105476 -0.038711 -0.993668
vn -0.105476 -0.038711 -0.993668
vn -0.056869 -0.194363 0.979280
vn -0.056869 -0.194363 0.979280
vn -0.056869 -0.194363 0.979280
vn -0.056869 -0.194363 0.979280
vn 0.623115 0.759466 0.186921
vn 0.623115 0.759466 0.186921
vn 0.623115 0.759466 0.186921
vn 0.623115 0.759466 0.186921
vn 0.056869 0.194363 -0.979280
vn 0.056869 0.194363 -0.979280
vn 0.056869 0.194363 -0.979280
vn 0.056869 0.194363 -0.979280
vn -0.623115 -0.759466 -0.186921
vn -0.623115 -0.759466 -0.186921
vn -0.623115 -0.759466 -0.186921
vn -0.623115 -0.759466 -0.186921
vn 0.780060 -0.620834 -0.077920
vn 0.780060 -0.620834 -0.077920
vn 0.780060 -0.620834 -0.077920
vn 0.780060 -0.620834 -0.077920
vn -0.780060 0.620834 0.077920
vn -0.780060 0.620834 0.077920
vn -0.780060 0.620834 0.077920
vn -0.780060 0.620834 0.077920
s off
g placeholderDebris
usemtl initialShadingGroup
f 1/1/1 2/2/2 4/4/3 3/3/4
f 3/3/5 4/4/6 6/6/7 5/5/8
f 5/5/9 6/6/10 8/8/11 7/7/12
f 7/7/13 8/8/14 2/10/15 1/9/16
f 2/2/17 8/11/18 6/12/19 4/4/20
f 7/13/21 1/1/22 3/3/23 5/14/24
f 9/15/25 10/16/26 12/17/27 11/18/28
f 11/18/29 12/17/30 14/19/31 13/20/32
f 13/20/33 14/19/34 16/21/35 15/22/36
f 15/22/37 16/21/38 10/23/39 9/24/40
f 10/16/41 16/25/42 14/26/43 12/17/44
f 15/27/45 9/15/46 11/18/47 13/28/48
f 17/29/49 18/30/50 20/31/51 19/32/52
f 19/32/53 20/31/54 22/33/55 21/34/56
f 21/34/57 22/33/58 24/35/59 23/36/60
f 23/36/61 24/35/62 18/37/63 17/38/64
f 18/30/65 24/39/66 22/40/67 20/31/68
f 23/41/69 17/29/70 19/32/71 21/42/72
f 25/43/73 26/44/74 28/45/75 27/46/76
f 27/46/77 28/45/78 30/47/79 29/48/80
f 29/48/81 30/47/82 32/49/83 31/50/84
f 31/50/85 32/49/86 26/51/87 25/52/88
f 26/44/89 32/53/90 30/54/91 28/45/92
f 31/55/93 25/43/94 27/46/95 29/56/96
f 33/57/97 34/58/98 36/59/99 35/60/100
f 35/60/101 36/59/102 38/61/103 37/62/104
f 37/62/105 38/61/106 40/63/107 39/64/108
f 39/64/109 40/63/110 34/65/111 33/66/112
f 34/58/113 40/67/114 38/68/115 36/59/116
f 39/69/117 33/57/118 35/60/119 37/70/120
f 41/71/121 42/72/122 44/73/123 43/74/124
f 43/74/125 44/73/126 46/75/127 45/76/128
f 45/76/129 46/75/130 48/77/131 47/78/132
f 47/78/133 48/77/134 42/79/135 41/80/136
f 42/72/137 48/81/138 46/82/139 44/73/140
f 47/83/141 41/71/142 43/74/143 45/84/144
f 49/85/145 50/86/146 52/87/147 51/88/148
f 51/88/149 52/87/150 54/89/151 53/90/152
f 53/90/153 54/89/154 56/91/155 55/92/156
f 55/92/157 56/91/158 50/93/159 49/94/160
f 50/86/161 56/95/162 54/96/163 52/87/164
f 55/97/165 49/85/166 51/88/167 53/98/168
f 57/99/169 58/100/170 60/101/171 59/102/172
f 59/102/173 60/101/174 62/103/175 61/104/176
f 61/104/177 62/103/178 64/105/179 63/106/180
f 63/106/181 64/105/182 58/107/183 57/108/184
f 58/100/185 64/109/186 62/110/187 60/101/188
f 63/111/189 57/99/190 59/102/191 61/112/192
