# This file uses centimeters as units for non-parametric coordinates.

mtllib placeholderDoor.mtl
g default
v -0.062500 -0.500000 0.500000
v 0.062500 -0.500000 0.500000
v -0.062500 0.500000 0.500000
v 0.062500 0.500000 0.500000
v -0.062500 0.500000 -0.500000
v 0.062500 0.500000 -0.500000
v -0.062500 -0.500000 -0.500000
v 0.062500 -0.500000 -0.500000
v -0.062500 -0.500000 0.416667
v -0.062500 0.500000 0.416667
v 0.062500 0.500000 0.416667
v 0.062500 -0.500000 0.416667
v -0.062500 -0.500000 -0.416667
v -0.062500 0.500000 -0.416667
v 0.062500 0.500000 -0.416667
v 0.062500 -0.500000 -0.416667
v -0.062500 0.400000 -0.416667
v -0.062500 0.400000 -0.500000
v 0.062500 0.400000 -0.500000
v 0.062500 0.400000 -0.416667
v 0.062500 0.400000 0.416667
v 0.062500 0.400000 0.500000
v -0.062500 0.400000 0.500000
v -0.062500 0.400000 0.416667
v -0.062500 0.500000 -0.138889
v -0.062500 0.400000 -0.138889
v 0.062500 0.400000 -0.138889
v 0.062500 0.500000 -0.138889
v -0.062500 0.500000 0.138889
v -0.062500 0.400000 0.138889
v 0.062500 0.400000 0.138889
v 0.062500 0.500000 0.138889
v -0.081225 0.514980 -0.416667
v 0.081225 0.514980 -0.416667
v 0.081225 0.514980 -0.500000
v -0.081225 0.514980 -0.500000
v -0.081225 0.385020 -0.416667
v -0.081225 0.385020 -0.500000
v 0.081225 0.385020 -0.500000
v 0.081225 0.385020 -0.416667
v -0.081225 0.514980 0.500000
v 0.081225 0.514980 0.500000
v 0.081225 0.514980 0.416667
v -0.081225 0.514980 0.416667
v 0.081225 0.385020 0.416667
v 0.081225 0.385020 0.500000
v -0.081225 0.385020 0.500000
v -0.081225 0.385020 0.416667
v -0.049598 0.416933 0.138889
v -0.082658 0.383873 0.105829
v -0.082658 0.516127 0.105829
v -0.049598 0.483067 0.138889
v -0.082658 0.383873 -0.105829
v -0.049598 0.416933 -0.138889
v -0.049598 0.483067 -0.138889
v -0.082658 0.516127 -0.105829
v 0.049598 0.416933 0.138889
v 0.082658 0.383873 0.105829
v 0.082658 0.383873 -0.105829
v 0.049598 0.416933 -0.138889
v 0.049598 0.483067 0.138889
v 0.082658 0.516127 0.105829
v 0.082658 0.516127 -0.105829
v 0.049598 0.483067 -0.138889
vt 0.375000 0.000000
vt 0.625000 0.000000
vt 0.375000 0.250000
vt 0.625000 0.250000
vt 0.375000 0.500000
vt 0.625000 0.500000
vt 0.375000 0.750000
vt 0.625000 0.750000
vt 0.375000 1.000000
vt 0.625000 1.000000
vt 0.875000 0.000000
vt 0.875000 0.250000
vt 0.125000 0.000000
vt 0.125000 0.250000
vt 0.333333 0.458333
vt 0.291667 0.250000
vt 0.375000 0.333333
vt 0.625000 0.333333
vt 0.708333 0.250000
vt 0.666667 0.458333
vt 0.291667 0.416667
vt 0.208333 0.250000
vt 0.375000 0.416667
vt 0.625000 0.416667
vt 0.791667 0.250000
vt 0.708333 0.416667
vt 0.208333 0.125000
vt 0.125000 0.125000
vt 0.375000 0.625000
vt 0.625000 0.625000
vt 0.875000 0.125000
vt 0.791667 0.125000
vt 0.708333 0.125000
vt 0.625000 0.125000
vt 0.375000 0.125000
vt 0.291667 0.125000
vt 0.236111 0.250000
vt 0.625000 0.388889
vt 0.375000 0.361111
vt 0.736111 0.250000
vt 0.375000 0.416667
vt 0.625000 0.416667
vt 0.625000 0.500000
vt 0.375000 0.500000
vt 0.375000 0.250000
vt 0.625000 0.250000
vt 0.625000 0.333333
vt 0.375000 0.333333
vt 0.125000 0.125000
vt 0.208333 0.125000
vt 0.208333 0.250000
vt 0.125000 0.250000
vt 0.791667 0.125000
vt 0.875000 0.125000
vt 0.875000 0.250000
vt 0.791667 0.250000
vt 0.625000 0.125000
vt 0.708333 0.125000
vt 0.708333 0.250000
vt 0.291667 0.125000
vt 0.375000 0.125000
vt 0.291667 0.250000
vt 0.263889 0.246302
vt 0.375000 0.364417
vt 0.424995 0.361111
vt 0.575005 0.361111
vt 0.239417 0.250000
vt 0.424995 0.388889
vt 0.625000 0.385583
vt 0.575005 0.388889
vt 0.739417 0.250000
vt 0.763889 0.246302
vt 0.239417 0.125000
vt 0.260583 0.250000
vt 0.760583 0.125000
vt 0.260583 0.125000
vt 0.739417 0.125000
vt 0.760583 0.250000
vt 0.625000 0.364417
vt 0.375000 0.385583
vt 0.263889 0.250000
vt 0.263889 0.130040
vt 0.236111 0.125000
vt 0.236111 0.244960
vt 0.263889 0.125000
vt 0.736111 0.128698
vt 0.763889 0.125000
vt 0.236111 0.128698
vt 0.736111 0.125000
vt 0.736111 0.244960
vt 0.763889 0.250000
vt 0.763889 0.130040
vt 0.625000 0.361111
vt 0.625000 0.361111
vt 0.375000 0.361111
vt 0.375000 0.388889
vt 0.375000 0.388889
vt 0.625000 0.388889
vn 0.000000 0.000000 1.000000
vn 0.000000 0.000000 1.000000
vn 0.000000 0.000000 1.000000
vn 0.000000 0.000000 1.000000
vn 0.000000 1.000000 0.000000
vn 0.000000 1.000000 0.000000
vn 0.000000 1.000000 0.000000
vn 0.000000 1.000000 0.000000
vn 0.000000 0.000000 -1.000000
vn 0.000000 0.000000 -1.000000
vn 0.000000 0.000000 -1.000000
vn 0.000000 0.000000 -1.000000
vn 0.000000 -1.000000 0.000000
vn 0.000000 -1.000000 0.000000
vn 0.000000 -1.000000 0.000000
vn 0.000000 -1.000000 0.000000
vn 1.000000 0.000000 0.000000
vn 1.000000 0.000000 0.000000
vn 1.000000 0.000000 0.000000
vn 1.000000 0.000000 0.000000
vn -1.000000 0.000000 0.000000
vn -1.000000 0.000000 0.000000
vn -1.000000 0.000000 0.000000
vn -1.000000 0.000000 0.000000
vn -1.000000 0.000000 -0.000000
vn -1.000000 0.000000 -0.000000
vn -1.000000 0.000000 -0.000000
vn -1.000000 0.000000 -0.000000
vn 0.000000 1.000000 0.000000
vn 0.000000 1.000000 0.000000
vn 0.000000 1.000000 0.000000
vn 0.000000 1.000000 0.000000
vn 1.000000 -0.000000 0.000000
vn 1.000000 -0.000000 0.000000
vn 1.000000 -0.000000 0.000000
vn 1.000000 -0.000000 0.000000
vn 0.000000 -1.000000 0.000000
vn 0.000000 -1.000000 0.000000
vn 0.000000 -1.000000 0.000000
vn 0.000000 -1.000000 0.000000
vn 0.000000 1.000000 0.000000
vn 0.000000 1.000000 0.000000
vn 0.000000 1.000000 0.000000
vn 0.000000 1.000000 0.000000
vn -1.000000 0.000000 0.000000
vn -1.000000 0.000000 0.000000
vn -1.000000 0.000000 0.000000
vn -1.000000 0.000000 0.000000
vn 0.000000 0.000000 -1.000000
vn 0.000000 0.000000 -1.000000
vn 1.000000 0.000000 0.000000
vn 1.000000 0.000000 0.000000
vn 1.000000 0.000000 0.000000
vn 1.000000 0.000000 0.000000
vn 1.000000 0.000000 -0.000000
vn 1.000000 0.000000 -0.000000
vn 1.000000 0.000000 -0.000000
vn 1.000000 0.000000 -0.000000
vn 1.000000 0.000000 0.000000
vn 1.000000 0.000000 0.000000
vn 1.000000 0.000000 0.000000
vn 1.000000 0.000000 0.000000
vn 0.000000 0.000000 1.000000
vn 0.000000 0.000000 1.000000
vn -1.000000 -0.000000 -0.000000
vn -1.000000 -0.000000 -0.000000
vn -1.000000 -0.000000 -0.000000
vn -1.000000 -0.000000 -0.000000
vn -1.000000 -0.000000 0.000000
vn -1.000000 -0.000000 0.000000
vn -1.000000 -0.000000 0.000000
vn -1.000000 -0.000000 0.000000
vn 0.000000 0.000000 1.000000
vn 0.000000 0.000000 1.000000
vn 0.000000 0.000000 1.000000
vn 0.000000 0.000000 1.000000
vn 0.000000 -1.000000 0.000000
vn 0.000000 -1.000000 0.000000
vn 0.000000 -1.000000 0.000000
vn 0.000000 -1.000000 0.000000
vn 0.000000 -0.000000 -1.000000
vn 0.000000 -0.000000 -1.000000
vn 0.000000 -0.000000 -1.000000
vn 0.000000 -0.000000 -1.000000
vn -1.000000 0.000000 0.000000
vn -1.000000 0.000000 0.000000
vn -1.000000 0.000000 0.000000
vn -1.000000 0.000000 0.000000
vn 0.000000 -1.000000 -0.000000
vn 0.000000 -1.000000 -0.000000
vn 0.000000 -1.000000 -0.000000
vn 0.000000 -1.000000 -0.000000
vn 1.000000 0.000000 0.000000
vn 1.000000 0.000000 0.000000
vn 1.000000 0.000000 0.000000
vn 1.000000 0.000000 0.000000
vn 0.000000 1.000000 0.000000
vn 0.000000 1.000000 0.000000
vn 0.000000 1.000000 0.000000
vn 0.000000 1.000000 0.000000
vn 0.000000 0.000000 1.000000
vn 0.000000 0.000000 1.000000
vn 0.000000 0.000000 1.000000
vn 0.000000 0.000000 1.000000
vn 0.000000 0.000000 -1.000000
vn 0.000000 0.000000 -1.000000
vn 0.000000 0.000000 -1.000000
vn 0.000000 0.000000 -1.000000
vn 0.624695 -0.780869 0.000001
vn 0.624695 -0.780869 0.000001
vn 0.624695 -0.780869 0.000001
vn 0.624695 -0.780869 0.000001
vn -0.000000 0.000000 1.000000
vn -0.000000 0.000000 1.000000
vn -0.000000 0.000000 1.000000
vn -0.000000 0.000000 1.000000
vn 0.000000 0.000000 -1.000000
vn 0.000000 0.000000 -1.000000
vn 0.000000 0.000000 -1.000000
vn 0.000000 0.000000 -1.000000
vn -0.624694 -0.780870 0.000001
vn -0.624694 -0.780870 0.000001
vn -0.624694 -0.780870 0.000001
vn -0.624694 -0.780870 0.000001
vn 0.000000 0.000000 -1.000000
vn 0.000000 0.000000 -1.000000
vn 0.000000 0.000000 -1.000000
vn 0.000000 0.000000 -1.000000
vn -0.000001 -0.000000 1.000000
vn -0.000001 -0.000000 1.000000
vn -0.000001 -0.000000 1.000000
vn -0.000001 -0.000000 1.000000
vn 0.000000 0.000000 1.000000
vn 0.000000 0.000000 1.000000
vn 0.000000 0.000000 1.000000
vn 0.000000 0.000000 1.000000
vn 0.000000 0.000000 -1.000000
vn 0.000000 0.000000 -1.000000
vn 0.000000 0.000000 -1.000000
vn 0.000000 0.000000 -1.000000
vn -0.624694 -0.780870 -0.000000
vn -0.624694 -0.780870 -0.000000
vn -0.624694 -0.780870 -0.000000
vn -0.624694 -0.780870 -0.000000
vn 0.000001 0.000000 -1.000000
vn 0.000001 0.000000 -1.000000
vn 0.000001 0.000000 -1.000000
vn 0.000001 0.000000 -1.000000
vn 0.000000 0.000000 1.000000
vn 0.000000 0.000000 1.000000
vn 0.000000 0.000000 1.000000
vn 0.000000 0.000000 1.000000
vn 0.624694 -0.780869 0.000000
vn 0.624694 -0.780870 0.000000
vn 0.624694 -0.780869 0.000000
vn 0.624694 -0.780870 0.000000
vn 0.000000 0.000000 1.000000
vn 0.000000 0.000000 1.000000
vn 0.000000 0.000000 1.000000
vn 0.000000 0.000000 1.000000
vn 0.000000 0.000000 -1.000000
vn 0.000000 0.000000 -1.000000
vn 0.000000 0.000000 -1.000000
vn 0.000000 0.000000 -1.000000
vn 0.000000 -0.707107 0.707107
vn 0.000000 -0.707107 0.707107
vn 0.000000 -0.707107 0.707107
vn 0.000000 -0.707107 0.707107
vn -0.707107 0.000000 0.707107
vn -0.707107 0.000000 0.707107
vn -0.707107 0.000000 0.707107
vn -0.707107 0.000000 0.707107
vn 0.000000 0.707107 0.707106
vn 0.000000 0.707107 0.707106
vn 0.000000 0.707107 0.707106
vn 0.000000 0.707107 0.707106
vn 0.000000 -0.707107 -0.707107
vn 0.000000 -0.707107 -0.707107
vn 0.000000 -0.707107 -0.707107
vn 0.000000 -0.707107 -0.707107
vn -0.707107 0.000000 -0.707107
vn -0.707107 0.000000 -0.707107
vn -0.707107 0.000000 -0.707107
vn -0.707107 0.000000 -0.707107
vn 0.000000 0.707107 -0.707106
vn 0.000000 0.707107 -0.707106
vn 0.000000 0.707107 -0.707106
vn 0.000000 0.707107 -0.707106
vn 0.707107 0.000000 0.707107
vn 0.707107 0.000000 0.707107
vn 0.707107 0.000000 0.707107
vn 0.707107 0.000000 0.707107
vn 0.707107 0.000000 -0.707107
vn 0.707107 0.000000 -0.707107
vn 0.707107 0.000000 -0.707107
vn 0.707107 0.000000 -0.707107
vn -1.000000 0.000000 0.000000
vn -1.000000 0.000000 0.000000
vn -1.000000 0.000000 0.000000
vn -1.000000 0.000000 0.000000
vn 0.000000 -1.000000 0.000000
vn 0.000000 -1.000000 0.000000
vn 0.000000 -1.000000 0.000000
vn 0.000000 -1.000000 0.000000
vn 1.000000 0.000000 0.000000
vn 1.000000 0.000000 0.000000
vn 1.000000 0.000000 0.000000
vn 1.000000 0.000000 0.000000
vn 0.000000 1.000000 0.000000
vn 0.000000 1.000000 0.000000
vn 0.000000 1.000000 0.000000
vn 0.000000 1.000000 0.000000
vn -0.000000 0.000000 -1.000000
vn -0.000000 0.000000 -1.000000
vn -0.000000 0.000000 -1.000000
vn -0.000000 0.000000 -1.000000
vn 0.000000 0.000000 1.000000
vn 0.000000 0.000000 1.000000
vn 0.000000 0.000000 1.000000
vn 0.000000 0.000000 1.000000
vn 0.000000 0.000000 -1.000000
vn 0.000000 0.000000 -1.000000
vn 0.000000 0.000000 1.000000
vn 0.000000 0.000000 1.000000
vn 0.000000 0.000000 -1.000000
vn 0.000000 0.000000 -1.000000
vn 0.000000 0.000000 1.000000
vn 0.000000 0.000000 1.000000
s 1
g placeholderDoor
usemtl initialShadingGroup
f 1/1/1 2/2/2 22/34/3 23/35/4
s off
f 33/41/5 34/42/6 35/43/7 36/44/8
s 2
f 18/29/9 19/30/10 8/8/11 7/7/12
s off
f 7/7/13 8/8/14 16/26/15 13/21/16
f 16/26/17 8/11/18 19/31/19 20/32/20
f 7/13/21 13/21/22 17/27/23 18/28/24
f 9/15/25 1/1/26 23/35/27 24/36/28
f 41/45/29 42/46/30 43/47/31 44/48/32
f 2/2/33 12/20/34 21/33/35 22/34/36
f 9/15/37 12/20/38 2/10/39 1/9/40
f 10/17/41 11/18/42 32/93/43 29/39/44
f 38/49/45 37/50/46 33/51/47 36/52/48
s 2
f 5/5/49 6/6/50 19/30/10 18/29/9
s off
f 40/53/51 39/54/52 35/55/53 34/56/54
f 21/33/55 31/89/56 32/40/57 11/19/58
f 46/57/59 45/58/60 43/59/61 42/46/62
s 1
f 23/35/4 22/34/3 4/4/63 3/3/64
s off
f 48/60/65 47/61/66 41/45/67 44/62/68
f 30/85/69 24/36/70 10/16/71 29/81/72
f 17/27/73 13/21/74 16/26/75 20/32/76
f 31/89/77 21/33/78 24/36/79 30/85/80
f 9/15/81 24/36/82 21/33/83 12/20/84
f 17/27/85 26/83/86 25/37/87 14/22/88
f 20/32/89 27/87/90 26/83/91 17/27/92
f 28/91/93 27/87/94 20/32/95 15/25/96
f 25/96/97 28/38/98 15/24/99 14/23/100
f 14/23/101 15/24/102 34/42/103 33/41/104
f 6/6/105 5/5/106 36/44/107 35/43/108
f 18/3/109 17/4/110 37/46/111 38/45/112
f 17/18/113 14/17/114 33/48/115 37/47/116
f 5/28/117 18/27/118 38/50/119 36/49/120
f 20/27/121 19/22/122 39/51/123 40/50/124
f 19/14/125 6/28/126 35/49/127 39/52/128
f 15/32/129 20/31/130 40/54/131 34/53/132
f 3/31/133 4/12/134 42/55/135 41/54/136
f 11/25/137 10/32/138 44/53/139 43/56/140
f 22/34/141 21/33/142 45/58/143 46/57/144
f 21/33/145 11/19/146 43/59/147 45/58/148
f 4/4/149 22/34/150 46/57/151 42/46/152
f 24/36/153 23/35/154 47/61/155 48/60/156
f 23/35/157 3/3/158 41/45/159 47/61/160
f 10/16/161 24/36/162 48/60/163 44/62/164
f 49/82/165 50/76/166 58/77/167 57/86/168
f 50/76/169 49/82/170 52/63/171 51/74/172
f 51/64/173 52/65/174 61/66/175 62/79/176
f 53/73/177 54/88/178 60/92/179 59/75/180
f 54/88/181 53/73/182 56/67/183 55/84/184
f 55/68/185 56/80/186 63/69/187 64/70/188
f 57/86/189 58/77/190 62/71/191 61/90/192
f 59/75/193 60/92/194 64/72/195 63/78/196
f 53/73/197 50/76/198 51/74/199 56/67/200
f 59/75/201 58/77/202 50/76/203 53/73/204
f 62/71/205 58/77/206 59/75/207 63/78/208
f 51/64/209 62/79/210 63/69/211 56/80/212
s 3
f 30/85/213 29/81/214 52/63/215 49/82/216
s 4
f 25/37/217 26/83/218 54/88/219 55/84/220
s 3
f 31/89/221 30/85/213 49/82/216 57/86/222
s 4
f 26/83/218 27/87/223 60/92/224 54/88/219
s 3
f 32/40/225 31/89/221 57/86/222 61/90/226
s 4
f 27/87/223 28/91/227 64/72/228 60/92/224
s 3
f 29/39/214 32/93/225 61/94/226 52/95/215
s 4
f 28/38/227 25/96/217 55/97/220 64/98/228
