# This file uses centimeters as units for non-parametric coordinates.

mtllib tileWall.mtl
g default
v -0.500000 0.000000 0.500000
v 0.500000 0.000000 0.500000
v -0.500000 0.000000 -0.500000
v 0.500000 0.000000 -0.500000
v 0.433334 0.000000 0.500000
v 0.433334 0.000000 -0.500000
v -0.433334 0.000000 0.500000
v -0.433334 0.000000 -0.500000
v -0.500000 0.000000 -0.433334
v -0.433334 0.000000 -0.433334
v 0.433334 0.000000 -0.433334
v 0.500000 0.000000 -0.433334
v -0.500000 0.000000 0.433334
v -0.433334 0.000000 0.433334
v 0.433334 0.000000 0.433334
v 0.500000 0.000000 0.433334
v -0.500000 1.000000 -0.433334
v -0.433334 1.000000 -0.433334
v -0.433334 1.000000 -0.500000
v -0.500000 1.000000 -0.500000
v 0.433334 1.000000 -0.433334
v 0.500000 1.000000 -0.433334
v 0.500000 1.000000 -0.500000
v 0.433334 1.000000 -0.500000
vt 0.000000 0.000000
vt 1.000000 0.000000
vt 0.000000 1.000000
vt 1.000000 1.000000
vt 0.666667 0.000000
vt 0.666667 1.000000
vt 0.333333 0.000000
vt 0.333333 1.000000
vt 0.000000 0.666667
vt 0.333333 0.666667
vt 0.666667 0.666667
vt 1.000000 0.666667
vt 0.000000 0.333333
vt 0.333333 0.333333
vt 0.666667 0.333333
vt 1.000000 0.333333
vt 0.000000 0.666667
vt 0.333333 0.666667
vt 0.333333 1.000000
vt 0.000000 1.000000
vt 0.666667 0.666667
vt 1.000000 0.666667
vt 1.000000 1.000000
vt 0.666667 1.000000
vn 0.000000 1.000000 0.000000
vn 0.000000 1.000000 0.000000
vn 0.000000 1.000000 0.000000
vn 0.000000 1.000000 0.000000
vn 0.000000 1.000000 0.000000
vn 0.000000 1.000000 0.000000
vn 0.000000 1.000000 0.000000
vn 0.000000 1.000000 0.000000
vn 0.000000 1.000000 0.000000
vn 0.000000 1.000000 0.000000
vn 0.000000 1.000000 0.000000
vn 0.000000 1.000000 0.000000
vn 0.000000 1.000000 0.000000
vn 0.000000 1.000000 0.000000
vn 0.000000 1.000000 0.000000
vn 0.000000 1.000000 0.000000
vn 0.000000 1.000000 0.000000
vn 0.000000 1.000000 0.000000
vn 0.000000 1.000000 0.000000
vn 0.000000 1.000000 0.000000
vn 0.000000 0.000000 1.000000
vn 0.000000 0.000000 1.000000
vn 0.000000 0.000000 1.000000
vn 0.000000 0.000000 1.000000
vn 0.000000 0.000000 -1.000000
vn 0.000000 0.000000 -1.000000
vn 0.000000 0.000000 -1.000000
vn 0.000000 0.000000 -1.000000
vn -1.000000 0.000000 0.000000
vn -1.000000 0.000000 0.000000
vn -1.000000 0.000000 0.000000
vn -1.000000 0.000000 0.000000
vn 0.000000 0.000000 1.000000
vn 0.000000 0.000000 1.000000
vn 0.000000 0.000000 1.000000
vn 0.000000 0.000000 1.000000
vn 1.000000 0.000000 0.000000
vn 1.000000 0.000000 0.000000
vn 1.000000 0.000000 0.000000
vn 1.000000 0.000000 0.000000
vn 0.000000 0.000000 -1.000000
vn 0.000000 0.000000 -1.000000
vn 0.000000 0.000000 -1.000000
vn 0.000000 0.000000 -1.000000
s 1
g tileWall
usemtl initialShadingGroup
f 17/17/1 18/18/2 19/19/3 20/20/4
f 21/21/5 22/22/6 23/23/7 24/24/8
f 18/18/2 21/21/5 24/24/8 19/19/3
s 2
f 13/13/9 14/14/10 10/10/11 9/9/12
f 14/14/10 15/15/13 11/11/14 10/10/11
f 15/15/13 16/16/15 12/12/16 11/11/14
f 1/1/17 7/7/18 14/14/10 13/13/9
f 7/7/18 5/5/19 15/15/13 14/14/10
f 5/5/19 2/2/20 16/16/15 15/15/13
s 3
f 9/9/21 10/10/22 18/18/23 17/17/24
s 4
f 8/8/25 3/3/26 20/20/27 19/19/28
s off
f 3/3/29 9/9/30 17/17/31 20/20/32
s 3
f 11/11/33 12/12/34 22/22/35 21/21/36
s off
f 12/12/37 4/4/38 23/23/39 22/22/40
s 4
f 4/4/41 6/6/42 24/24/43 23/23/44
s 3
f 10/10/22 11/11/33 21/21/36 18/18/23
s 4
f 6/6/42 8/8/25 19/19/28 24/24/43
