# This file uses centimeters as units for non-parametric coordinates.

mtllib tileCorner.mtl
g default
v -0.500000 0.000000 0.500000
v 0.499999 0.000001 0.499999
v -0.499999 0.000000 -0.500000
v 0.433333 0.000000 0.500000
v -0.433333 0.000000 0.500000
v -0.500000 0.000000 -0.433333
v -0.433333 0.000000 -0.433334
v 0.433333 -0.000000 -0.433334
v -0.500000 0.000000 0.433333
v -0.433333 0.000000 0.433334
v 0.433333 0.000000 0.433334
v -0.500000 1.000000 -0.433333
v -0.433333 1.000000 -0.433334
v -0.433333 1.000000 -0.500000
v -0.500000 1.000001 -0.500000
v 0.433329 0.999999 -0.433334
v 0.499996 0.999999 -0.433334
v 0.500000 1.000000 -0.500000
v 0.433333 1.000000 -0.500000
v 0.433333 1.000000 0.433334
v 0.500000 1.000000 0.433333
v 0.433333 1.000000 0.500000
v 0.499999 1.000001 0.499998
v -0.433333 0.000000 -0.499999
v 0.500000 0.000000 -0.433333
v 0.500000 0.000000 -0.500000
v 0.433333 0.000000 -0.499999
v 0.500000 -0.000000 0.433333
vt 0.000000 0.000000
vt 1.000000 0.000000
vt 0.000000 1.000000
vt 0.666667 0.000000
vt 0.333333 0.000000
vt 0.000000 0.666667
vt 0.333333 0.666667
vt 0.666667 0.666667
vt 0.000000 0.333333
vt 0.333333 0.333333
vt 0.666667 0.333333
vt 0.000000 0.666667
vt 0.333333 0.666667
vt 0.333333 1.000000
vt 0.000000 0.500000
vt 0.666667 0.666667
vt 1.000000 0.666667
vt 1.000000 1.000000
vt 0.666667 1.000000
vt 1.000000 0.333333
vt 1.000000 0.666667
vt 0.666667 0.666667
vt 0.666667 0.333333
vt 0.666667 0.000000
vt 1.000000 0.000000
vt 1.000000 0.000000
vt 1.000000 1.000000
vt 0.000000 0.000000
vt 1.000000 0.000000
vt 1.000000 1.000000
vt 0.000000 1.000000
vt 0.000000 0.000000
vt 1.000000 0.000000
vt 1.000000 1.000000
vt 0.000000 1.000000
vt 0.000000 0.000000
vt 1.000000 0.000000
vt 1.000000 1.000000
vt 0.000000 1.000000
vt 0.000000 0.000000
vt 1.000000 0.000000
vt 1.000000 1.000000
vt 0.000000 1.000000
vt 0.000000 0.000000
vt 1.000000 0.000000
vt 1.000000 1.000000
vt 0.000000 1.000000
vn 0.000005 1.000000 0.000005
vn 0.000005 1.000000 0.000005
vn 0.000005 1.000000 0.000005
vn 0.000005 1.000000 0.000005
vn -0.000000 1.000000 0.000015
vn -0.000000 1.000000 0.000015
vn -0.000000 1.000000 0.000015
vn -0.000000 1.000000 0.000015
vn 0.000001 1.000000 0.000008
vn 0.000001 1.000000 0.000008
vn 0.000001 1.000000 0.000008
vn 0.000001 1.000000 0.000008
vn 0.000000 1.000000 0.000000
vn 0.000000 1.000000 0.000000
vn 0.000000 1.000000 0.000000
vn 0.000000 1.000000 0.000000
vn 0.000000 1.000000 -0.000000
vn 0.000000 1.000000 -0.000000
vn 0.000000 1.000000 -0.000000
vn 0.000000 1.000000 -0.000000
vn 0.000000 1.000000 -0.000001
vn 0.000000 1.000000 -0.000001
vn 0.000000 1.000000 -0.000001
vn 0.000000 1.000000 -0.000001
vn 0.000000 1.000000 0.000000
vn 0.000000 1.000000 0.000000
vn 0.000000 1.000000 0.000000
vn 0.000000 1.000000 0.000000
vn 0.000000 1.000000 0.000000
vn 0.000000 1.000000 0.000000
vn 0.000000 1.000000 0.000000
vn 0.000000 1.000000 0.000000
vn -0.000010 1.000000 -0.000010
vn -0.000010 1.000000 -0.000010
vn -0.000010 1.000000 -0.000010
vn -0.000010 1.000000 -0.000010
vn 0.000007 0.000000 1.000000
vn 0.000007 0.000000 1.000000
vn 0.000007 0.000000 1.000000
vn 0.000007 0.000000 1.000000
vn -1.000000 -0.000001 -0.000013
vn -1.000000 -0.000001 -0.000013
vn -1.000000 -0.000001 -0.000013
vn -1.000000 -0.000001 -0.000013
vn 0.000000 0.000000 1.000000
vn 0.000000 0.000000 1.000000
vn 0.000000 0.000000 1.000000
vn 0.000000 0.000000 1.000000
vn -1.000000 -0.000002 0.000002
vn -1.000000 -0.000002 0.000002
vn -1.000000 -0.000002 0.000002
vn -1.000000 -0.000002 0.000002
vn 0.000021 0.000000 1.000000
vn 0.000021 0.000000 1.000000
vn 0.000021 0.000000 1.000000
vn 0.000021 0.000000 1.000000
vn -1.000000 -0.000000 0.000000
vn -1.000000 -0.000000 0.000000
vn -1.000000 -0.000000 0.000000
vn -1.000000 -0.000000 0.000000
vn 0.000009 -0.000000 -1.000000
vn 0.000001 -0.000001 -1.000000
vn 0.000001 -0.000001 -1.000000
vn 0.000009 -0.000000 -1.000000
vn 1.000000 0.000002 0.000027
vn 1.000000 0.000002 0.000000
vn 1.000000 0.000002 -0.000000
vn 1.000000 0.000002 0.000027
vn -0.000001 -0.000001 -1.000000
vn -0.000007 -0.000000 -1.000000
vn -0.000007 -0.000000 -1.000000
vn -0.000001 -0.000001 -1.000000
vn 1.000000 0.000002 -0.000001
vn 1.000000 0.000002 -0.000001
vn 1.000000 -0.000000 0.000018
vn 1.000000 -0.000000 0.000018
s off
g tileCorner
usemtl initialShadingGroup
f 12/12/1 13/13/2 14/14/3 15/15/4
f 16/16/5 17/17/6 18/18/7 19/19/8
f 13/13/9 16/16/10 19/19/11 14/14/12
f 9/9/13 10/10/14 7/7/15 6/6/16
f 10/10/17 11/11/18 8/8/19 7/7/20
f 20/23/21 21/20/22 17/21/23 16/22/24
f 1/1/25 5/5/26 10/10/27 9/9/28
f 5/5/29 4/4/30 11/11/31 10/10/32
f 22/24/33 23/25/34 21/20/35 20/23/36
f 6/6/37 7/7/38 13/13/39 12/12/40
f 3/3/41 6/6/42 12/12/43 15/15/44
f 7/7/45 8/8/46 16/16/47 13/13/48
f 8/8/49 11/11/50 20/23/51 16/22/52
f 4/4/53 2/2/54 23/25/55 22/24/56
f 11/11/57 4/4/58 22/24/59 20/23/60
s 1
f 15/15/61 14/26/62 24/27/63 3/3/64
s 2
f 18/28/65 17/29/66 25/30/67 26/31/68
s 1
f 19/32/69 18/33/70 26/34/71 27/35/72
f 14/36/62 19/37/69 27/38/72 24/39/63
s 2
f 17/40/66 21/41/73 28/42/74 25/43/67
f 21/44/73 23/45/75 2/46/76 28/47/74
